# Blender v2.67 (sub 0) OBJ File: ''
# www.blender.org
mtllib blockStart2.mtl
o Cube_Cube.000_Cube_Cube.004
v -10.000000 10.000001 -7.374995
v -10.000000 10.000006 -9.999994
v -10.000000 0.000006 -10.000000
v -10.000000 0.000005 -7.375000
v 10.000000 10.000006 -9.999994
v 10.000000 0.000006 -10.000000
v 10.000000 9.999999 7.526105
v 10.000000 9.999994 10.000006
v 10.000000 -0.000006 10.000000
v 10.000000 -0.000005 7.526100
v -10.000000 9.999994 10.000006
v -10.000000 -0.000006 10.000000
v 10.000000 0.000005 -7.375000
v 10.000000 20.000006 -9.999993
v -10.000000 20.000006 -9.999993
v -10.000000 20.000006 -9.999993
v 10.000000 20.000006 -9.999993
v 10.000000 15.000006 -9.999993
v -10.000000 15.000006 -9.999993
v 10.000000 14.999999 7.526106
v 10.000000 14.999994 10.000007
v -10.000000 10.000000 2.125006
v -10.000000 10.000000 0.000006
v -10.000000 0.000000 0.000000
v -10.000000 -0.000000 2.125000
v -10.000000 15.000001 -7.374994
v -10.000000 20.000006 -7.374989
v 10.000000 19.999994 10.000007
v -10.000000 19.999994 10.000007
v -10.000000 14.999994 10.000007
v 10.000000 10.000000 -2.212494
v 10.000000 10.000000 0.000006
v 10.000000 0.000000 0.000000
v 10.000000 0.000000 -2.212500
v 10.000000 19.999994 7.526111
v 10.000000 -0.000000 2.125000
v 10.000000 15.000000 -2.212494
v 10.000000 15.000000 0.000006
v -10.000000 15.000000 2.125006
v -10.000000 15.000000 0.000006
v -10.000000 20.000000 2.125011
v -10.000000 20.000000 0.000011
v 10.000000 20.000000 -2.212489
v 10.000000 20.000000 0.000011
v -10.000000 10.000000 -2.212494
v -10.000000 0.000000 -2.212500
v 10.000000 15.000001 -7.374994
v 10.000000 20.000006 -7.374989
v 9.000000 20.000006 -7.374989
v 9.000000 15.000001 -7.374994
v -10.000000 15.000000 -2.212494
v 10.000000 10.000001 -7.374995
v 10.000000 20.000000 2.125011
v 10.000000 15.000000 2.125006
v -10.000000 14.999999 7.526106
v -9.000000 14.999999 7.526106
v -9.000000 15.000000 2.125006
v 9.000000 15.000000 -2.212494
v 9.000000 20.000000 -2.212489
v -10.000000 9.999999 7.526105
v 10.000000 10.000000 2.125006
v -10.000000 20.000000 -2.212489
v -10.000000 19.999994 7.526111
v -10.000000 -0.000005 7.526100
v -9.000000 20.000000 -2.212489
v -9.000000 15.000000 -2.212494
v 9.000000 20.000000 2.125011
v 9.000000 15.000000 2.125006
v -9.000000 20.000000 2.125011
v -9.000000 19.999994 7.526111
v -9.000000 15.000001 -7.374994
v -9.000000 20.000006 -7.374989
v 9.000000 19.999994 7.526111
v 9.000000 14.999999 7.526106
vt 0.520417 0.301952
vt 0.520338 0.347999
vt 0.348234 0.346344
vt 0.348668 0.301167
vt 0.162110 0.349303
vt 0.161999 0.672965
vt 0.000168 0.672910
vt 0.000279 0.349248
vt 0.172163 0.304974
vt 0.172067 0.348271
vt 0.000168 0.346686
vt 0.000560 0.304159
vt 0.329590 0.836595
vt 0.003116 0.836595
vt 0.003116 0.673358
vt 0.329590 0.673358
vt 0.348234 0.391838
vt 0.348234 0.348988
vt 0.674708 0.348988
vt 0.674708 0.391838
vt 0.323829 0.673021
vt 0.323941 0.349359
vt 0.329590 0.349361
vt 0.329478 0.673023
vt 0.242914 0.672993
vt 0.243026 0.349331
vt 0.258358 0.306542
vt 0.261100 0.348913
vt 0.519330 0.139549
vt 0.519413 0.176301
vt 0.349906 0.175567
vt 0.350013 0.139528
vt 0.606909 0.303791
vt 0.609663 0.348653
vt 0.692352 0.298836
vt 0.696060 0.339988
vt 0.329590 0.999832
vt 0.003116 0.999832
vt 0.003116 0.918214
vt 0.329590 0.918214
vt 0.171274 0.138522
vt 0.171303 0.176853
vt 0.001806 0.176058
vt 0.001894 0.138536
vt 0.344257 0.301131
vt 0.347898 0.339781
vt 0.348234 0.546913
vt 0.348234 0.512226
vt 0.674708 0.512225
vt 0.674708 0.546913
vt 0.256522 0.140285
vt 0.257902 0.177477
vt 0.604317 0.140834
vt 0.605876 0.176544
vt 0.690749 0.137422
vt 0.693093 0.170569
vt 0.342710 0.137186
vt 0.345162 0.171801
vt 0.519621 0.212268
vt 0.349772 0.213007
vt 0.348234 0.476109
vt 0.674708 0.476109
vt 0.257936 0.050928
vt 0.347692 0.047456
vt 0.332565 0.066053
vt 0.274877 0.065493
vt 0.607549 0.214958
vt 0.169405 0.006821
vt 0.170230 0.049336
vt 0.002307 0.051424
vt 0.002146 0.007597
vt 0.255412 0.004370
vt 0.345486 0.000168
vt 0.347898 0.209702
vt 0.259258 0.214457
vt 0.605776 0.048289
vt 0.622699 0.062977
vt 0.617171 0.123716
vt 0.269423 0.123320
vt 0.326591 0.124559
vt 0.603559 0.004325
vt 0.518235 0.046417
vt 0.517530 0.006518
vt 0.171423 0.211322
vt 0.001694 0.212004
vt 0.695931 0.210034
vt 0.694003 0.000168
vt 0.696060 0.044918
vt 0.348234 0.675463
vt 0.348234 0.635080
vt 0.674708 0.635079
vt 0.674708 0.675462
vt 0.350593 0.048426
vt 0.681264 0.228658
vt 0.624419 0.229065
vt 0.333331 0.228343
vt 0.276059 0.228667
vt 0.674766 0.124790
vt 0.680965 0.063604
vt 0.619569 0.286587
vt 0.350469 0.007168
vt 0.676240 0.286655
vt 0.328244 0.288947
vt 0.271028 0.289110
vn -1.000000 0.000000 0.000000
vn 0.000000 0.000001 -1.000000
vn 1.000000 -0.000000 0.000000
vn 0.000000 -0.000001 1.000000
vn 0.000000 -1.000000 -0.000000
vn 0.000000 0.000000 0.000000
vn 0.000000 0.000000 -1.000000
vn 0.000000 -0.000000 1.000000
vn 0.000000 -1.000000 -0.000001
vn 0.000000 1.000000 0.000000
usemtl None.011
s off
f 1/1/1 2/2/1 3/3/1 4/4/1
f 2/5/2 5/6/2 6/7/2 3/8/2
f 7/9/3 8/10/3 9/11/3 10/12/3
f 8/13/4 11/14/4 12/15/4 9/16/4
f 4/17/5 3/18/5 6/19/5 13/20/5
f 14/21/6 15/22/6 16/23/6 17/24/6
f 15/22/7 14/21/7 18/25/7 19/26/7
f 20/27/3 21/28/3 8/10/3 7/9/3
f 22/29/1 23/30/1 24/31/1 25/32/1
f 2/2/1 1/1/1 26/33/1 19/34/1
f 27/35/1 15/36/1 19/34/1 26/33/1
f 19/26/7 18/25/7 5/6/7 2/5/7
f 28/37/8 29/38/8 30/39/8 21/40/8
f 21/40/8 30/39/8 11/14/8 8/13/8
f 31/41/3 32/42/3 33/43/3 34/44/3
f 35/45/3 28/46/3 21/28/3 20/27/3
f 25/47/5 24/48/5 33/49/5 36/50/5
f 37/51/3 38/52/3 32/42/3 31/41/3
f 39/53/1 40/54/1 23/30/1 22/29/1
f 41/55/1 42/56/1 40/54/1 39/53/1
f 43/57/3 44/58/3 38/52/3 37/51/3
f 45/59/1 1/1/1 4/4/1 46/60/1
f 46/61/9 4/17/9 13/20/9 34/62/9
f 47/63/4 48/64/4 49/65/4 50/66/4
f 1/1/1 45/59/1 51/67/1 26/33/1
f 5/68/3 52/69/3 13/70/3 6/71/3
f 18/72/3 47/63/3 52/69/3 5/68/3
f 14/73/3 48/64/3 47/63/3 18/72/3
f 44/58/3 53/74/3 54/75/3 38/52/3
f 52/69/3 31/41/3 34/44/3 13/70/3
f 39/53/10 55/76/10 56/77/10 57/78/10
f 43/57/2 37/51/2 58/79/2 59/80/2
f 23/30/1 45/59/1 46/60/1 24/31/1
f 30/81/1 55/76/1 60/82/1 11/83/1
f 55/76/1 39/53/1 22/29/1 60/82/1
f 61/84/3 7/9/3 10/12/3 36/85/3
f 42/56/1 62/86/1 51/67/1 40/54/1
f 47/63/3 37/51/3 31/41/3 52/69/3
f 40/54/1 51/67/1 45/59/1 23/30/1
f 29/87/1 63/88/1 55/76/1 30/81/1
f 12/89/5 64/90/5 10/91/5 9/92/5
f 24/48/5 46/61/5 34/62/5 33/49/5
f 38/52/3 54/75/3 61/84/3 32/42/3
f 54/75/3 20/27/3 7/9/3 61/84/3
f 64/90/9 25/47/9 36/50/9 10/91/9
f 32/42/3 61/84/3 36/85/3 33/43/3
f 60/82/1 22/29/1 25/32/1 64/93/1
f 51/67/2 62/86/2 65/94/2 66/95/2
f 54/75/4 53/74/4 67/96/4 68/97/4
f 63/88/9 41/55/9 69/98/9 70/99/9
f 70/99/1 69/98/1 57/78/1 56/77/1
f 26/33/10 51/67/10 66/95/10 71/100/10
f 11/83/1 60/82/1 64/93/1 12/101/1
f 62/86/9 27/35/9 72/102/9 65/94/9
f 55/76/2 63/88/2 70/99/2 56/77/2
f 41/55/4 39/53/4 57/78/4 69/98/4
f 27/35/4 26/33/4 71/100/4 72/102/4
f 65/94/1 72/102/1 71/100/1 66/95/1
f 49/65/3 59/80/3 58/79/3 50/66/3
f 67/96/3 73/103/3 74/104/3 68/97/3
f 48/64/9 43/57/9 59/80/9 49/65/9
f 20/27/10 54/75/10 68/97/10 74/104/10
f 37/51/10 47/63/10 50/66/10 58/79/10
f 35/45/2 20/27/2 74/104/2 73/103/2
f 53/74/9 35/45/9 73/103/9 67/96/9
