# Blender v2.67 (sub 0) OBJ File: ''
# www.blender.org
mtllib blockStart2.mtl
o Cube_Cube.000_Cube_Cube.004
v -5.000000 5.000000 -3.687499
v -5.000000 5.000001 -4.999999
v -5.000000 0.000001 -5.000000
v -5.000000 0.000001 -3.687500
v 5.000000 5.000001 -4.999999
v 5.000000 0.000001 -5.000000
v 5.000000 5.000000 3.763051
v 5.000000 4.999999 5.000001
v 5.000000 -0.000001 5.000000
v 5.000000 -0.000001 3.763050
v -5.000000 4.999999 5.000001
v -5.000000 -0.000001 5.000000
v 5.000000 0.000001 -3.687500
v 5.000000 10.000001 -4.999999
v -5.000000 10.000001 -4.999999
v -5.000000 10.000001 -4.999999
v 5.000000 10.000001 -4.999999
v 5.000000 7.500001 -4.999999
v -5.000000 7.500001 -4.999999
v 5.000000 7.500000 3.763051
v 5.000000 7.499999 5.000001
v -5.000000 5.000000 1.062501
v -5.000000 5.000000 0.000001
v -5.000000 0.000000 0.000000
v -5.000000 -0.000000 1.062500
v -5.000000 7.500000 -3.687499
v -5.000000 10.000001 -3.687498
v 5.000000 9.999999 5.000001
v -5.000000 9.999999 5.000001
v -5.000000 7.499999 5.000001
v 5.000000 5.000000 -1.106249
v 5.000000 5.000000 0.000001
v 5.000000 0.000000 0.000000
v 5.000000 0.000000 -1.106250
v 5.000000 9.999999 3.763052
v 5.000000 -0.000000 1.062500
v 5.000000 7.500000 -1.106249
v 5.000000 7.500000 0.000001
v -5.000000 7.500000 1.062501
v -5.000000 7.500000 0.000001
v -5.000000 10.000000 1.062502
v -5.000000 10.000000 0.000002
v 5.000000 10.000000 -1.106248
v 5.000000 10.000000 0.000002
v -5.000000 5.000000 -1.106249
v -5.000000 0.000000 -1.106250
v 5.000000 7.500000 -3.687499
v 5.000000 10.000001 -3.687498
v 4.500000 10.000001 -3.687498
v 4.500000 7.500000 -3.687499
v -5.000000 7.500000 -1.106249
v 5.000000 5.000000 -3.687499
v 5.000000 10.000000 1.062502
v 5.000000 7.500000 1.062501
v -5.000000 7.500000 3.763051
v -4.500000 7.500000 3.763051
v -4.500000 7.500000 1.062501
v 4.500000 7.500000 -1.106249
v 4.500000 10.000000 -1.106248
v -5.000000 5.000000 3.763051
v 5.000000 5.000000 1.062501
v -5.000000 10.000000 -1.106248
v -5.000000 9.999999 3.763052
v -5.000000 -0.000001 3.763050
v -4.500000 10.000000 -1.106248
v -4.500000 7.500000 -1.106249
v 4.500000 10.000000 1.062502
v 4.500000 7.500000 1.062501
v -4.500000 10.000000 1.062502
v -4.500000 9.999999 3.763052
v -4.500000 7.500000 -3.687499
v -4.500000 10.000001 -3.687498
v 4.500000 9.999999 3.763052
v 4.500000 7.500000 3.763051
vn -1.000000 0.000000 0.000000
vn 0.000000 0.000000 -1.000000
vn 1.000000 -0.000000 0.000000
vn 0.000000 -0.000000 1.000000
vn 0.000000 -1.000000 -0.000000
vn 0.000000 0.000000 0.000000
vn 0.000000 1.000000 0.000000
usemtl None.011
s off
f 1//1 2//1 3//1 4//1
f 2//2 5//2 6//2 3//2
f 7//3 8//3 9//3 10//3
f 8//4 11//4 12//4 9//4
f 4//5 3//5 6//5 13//5
f 14//6 15//6 16//6 17//6
f 15//2 14//2 18//2 19//2
f 20//3 21//3 8//3 7//3
f 22//1 23//1 24//1 25//1
f 2//1 1//1 26//1 19//1
f 27//1 15//1 19//1 26//1
f 19//2 18//2 5//2 2//2
f 28//4 29//4 30//4 21//4
f 21//4 30//4 11//4 8//4
f 31//3 32//3 33//3 34//3
f 35//3 28//3 21//3 20//3
f 25//5 24//5 33//5 36//5
f 37//3 38//3 32//3 31//3
f 39//1 40//1 23//1 22//1
f 41//1 42//1 40//1 39//1
f 43//3 44//3 38//3 37//3
f 45//1 1//1 4//1 46//1
f 46//5 4//5 13//5 34//5
f 47//4 48//4 49//4 50//4
f 1//1 45//1 51//1 26//1
f 5//3 52//3 13//3 6//3
f 18//3 47//3 52//3 5//3
f 14//3 48//3 47//3 18//3
f 44//3 53//3 54//3 38//3
f 52//3 31//3 34//3 13//3
f 39//7 55//7 56//7 57//7
f 43//2 37//2 58//2 59//2
f 23//1 45//1 46//1 24//1
f 30//1 55//1 60//1 11//1
f 55//1 39//1 22//1 60//1
f 61//3 7//3 10//3 36//3
f 42//1 62//1 51//1 40//1
f 47//3 37//3 31//3 52//3
f 40//1 51//1 45//1 23//1
f 29//1 63//1 55//1 30//1
f 12//5 64//5 10//5 9//5
f 24//5 46//5 34//5 33//5
f 38//3 54//3 61//3 32//3
f 54//3 20//3 7//3 61//3
f 64//5 25//5 36//5 10//5
f 32//3 61//3 36//3 33//3
f 60//1 22//1 25//1 64//1
f 51//2 62//2 65//2 66//2
f 54//4 53//4 67//4 68//4
f 63//5 41//5 69//5 70//5
f 70//1 69//1 57//1 56//1
f 26//7 51//7 66//7 71//7
f 11//1 60//1 64//1 12//1
f 62//5 27//5 72//5 65//5
f 55//2 63//2 70//2 56//2
f 41//4 39//4 57//4 69//4
f 27//4 26//4 71//4 72//4
f 65//1 72//1 71//1 66//1
f 49//3 59//3 58//3 50//3
f 67//3 73//3 74//3 68//3
f 48//5 43//5 59//5 49//5
f 20//7 54//7 68//7 74//7
f 37//7 47//7 50//7 58//7
f 35//2 20//2 74//2 73//2
f 53//5 35//5 73//5 67//5
