# Blender v2.67 (sub 0) OBJ File: ''
# www.blender.org
mtllib 911_hull.mtl
o Cube_Cube.000
v 3.547825 2.725105 6.768192
v 1.710374 2.046876 8.539591
v 1.710374 0.019980 8.539591
v 3.547825 0.019979 6.768192
v -1.806195 2.046876 8.454009
v -1.806195 0.019980 8.454010
v -3.457618 3.900881 -7.897432
v -3.457618 2.248374 -8.266923
v -3.457618 0.019975 -8.266923
v -3.457618 0.019975 -7.897430
v 3.547827 2.248374 -8.266922
v 3.547827 0.019975 -8.266921
v -3.457620 0.019979 6.768191
v -3.457620 2.725105 6.768191
v 3.547826 3.560507 2.515417
v 3.547826 0.019978 2.515419
v -3.457619 0.019978 2.515418
v -3.457619 3.560507 2.515416
v 3.547826 5.057343 -0.204006
v 3.547826 0.019977 -0.204005
v -3.457619 0.019977 -0.204007
v -3.457619 5.057343 -0.204007
v 3.547827 0.019975 -6.168741
v 3.547827 0.019976 -4.730474
v -3.457618 0.019976 -4.730474
v -3.457618 0.019975 -6.168742
v -3.457618 4.149466 -4.730476
v 3.547827 4.149466 -4.730475
v 3.547827 0.019975 -7.217832
v -3.457618 0.019975 -7.217833
v -3.457618 3.504090 -6.168742
v -3.457618 3.919374 -7.217834
v 3.547827 3.919374 -7.217833
v 3.547827 3.900881 -7.897431
v 3.547827 3.504090 -6.168741
v 3.547827 0.019975 -7.897429
vn 0.694048 0.000000 0.719928
vn -0.024329 0.000000 0.999704
vn -1.000000 0.000000 0.000000
vn 0.000000 -0.000000 -1.000000
vn -0.000000 -1.000000 0.000001
vn -0.002970 0.930961 0.365108
vn 1.000000 0.000000 0.000000
vn -0.714356 0.000000 0.699782
vn -0.000000 -1.000000 0.000000
vn -0.000000 0.981247 0.192753
vn -0.000000 0.876059 0.482204
vn 0.000000 0.980473 -0.196654
vn 0.000000 0.999630 -0.027202
vn 0.000000 0.912359 -0.409392
vn -0.000000 0.929801 0.368062
vn 0.000000 0.218206 -0.975903
usemtl None.001
s off
f 1//1 2//1 3//1 4//1
f 2//2 5//2 6//2 3//2
f 7//3 8//3 9//3 10//3
f 8//4 11//4 12//4 9//4
f 4//5 3//5 6//5 13//5
f 2//6 1//6 14//6 5//6
f 15//7 1//7 4//7 16//7
f 5//8 14//8 13//8 6//8
f 16//9 4//9 13//9 17//9
f 1//10 15//10 18//10 14//10
f 14//3 18//3 17//3 13//3
f 19//7 15//7 16//7 20//7
f 20//5 16//5 17//5 21//5
f 22//11 18//11 15//11 19//11
f 23//5 24//5 25//5 26//5
f 22//3 27//3 25//3 21//3
f 28//7 19//7 20//7 24//7
f 24//9 20//9 21//9 25//9
f 29//9 23//9 26//9 30//9
f 27//12 22//12 19//12 28//12
f 18//3 22//3 21//3 17//3
f 31//3 32//3 30//3 26//3
f 7//13 32//13 33//13 34//13
f 35//7 28//7 24//7 23//7
f 33//7 35//7 23//7 29//7
f 31//14 27//14 28//14 35//14
f 34//7 33//7 29//7 36//7
f 27//3 31//3 26//3 25//3
f 32//15 31//15 35//15 33//15
f 36//9 29//9 30//9 10//9
f 11//7 34//7 36//7 12//7
f 12//9 36//9 10//9 9//9
f 32//3 7//3 10//3 30//3
f 8//16 7//16 34//16 11//16
