# Blender v2.67 (sub 0) OBJ File: ''
# www.blender.org
mtllib mustang_hull.mtl
o Cube_Cube.001
v -2.421343 2.146606 -7.197893
v -2.421343 2.025464 -7.688690
v -2.421343 -0.074395 -7.688690
v -2.421343 -0.074395 -7.197893
v 4.107575 2.025464 -7.688690
v 4.107575 -0.074395 -7.688690
v 4.107575 2.417254 7.376095
v 4.107575 2.025462 8.822728
v 4.107575 -0.074398 8.822727
v 4.107575 -0.074398 7.376094
v -2.421343 2.025462 8.822728
v -2.421343 -0.074398 8.822727
v 4.107575 -0.074395 -7.197893
v 4.107575 3.045022 -7.232476
v 4.107575 2.415747 -7.688690
v -2.421343 2.415747 -7.688690
v -2.421343 3.045022 -7.232476
v -2.421343 2.417254 7.376095
v -2.421343 2.568449 5.696120
v -2.421343 -0.074397 5.696120
v -2.421343 -0.074398 7.376094
v 4.440329 3.579208 0.613913
v 4.107575 2.568449 5.696120
v 4.107575 -0.074397 5.696120
v 4.107575 -0.074396 0.613912
v 4.107575 3.141709 7.376095
v 4.107575 3.336866 5.696121
v -2.421343 3.336866 5.696121
v -2.421343 3.141709 7.376095
v -2.716818 3.579208 0.613913
v -2.421343 3.677317 -0.996285
v -2.421343 -0.074396 -0.996285
v -2.421343 -0.074396 0.613912
v 4.107575 -0.074396 -0.996285
v 4.107575 4.641505 0.613913
v 4.107575 4.768138 -0.996285
v -2.421343 4.768138 -0.996285
v -2.421343 4.641505 0.613913
v 4.107575 3.110337 -3.293379
v 4.107575 3.677317 -0.996285
v 4.107575 -0.074396 -3.293379
v 4.107575 2.636002 8.822728
v -2.421343 2.636002 8.822728
v 4.107575 4.493649 -3.293378
v 4.107575 3.915976 -7.251127
v 4.107575 3.755072 -6.707932
v 4.107575 2.267540 -6.707932
v 4.107575 2.204583 -6.963000
v -2.421343 3.110337 -3.293379
v -2.421343 -0.074396 -3.293379
v -2.421343 2.549154 -5.566984
v -2.421343 2.267540 -6.707932
v -2.421343 -0.074395 -6.707932
v -2.421343 -0.074395 -5.566985
v 4.107575 -0.074395 -6.707932
v 4.107575 -0.074395 -6.963000
v 4.107575 -0.074395 -5.566985
v 4.107575 3.733097 -5.566984
v -2.421343 3.755072 -6.707932
v -2.421343 3.733097 -5.566984
v -2.421343 4.493649 -3.293378
v 4.107575 2.549154 -5.566984
v -2.421343 3.915976 -7.251127
v -2.421343 2.204583 -6.963000
v 4.107575 2.146606 -7.197893
v -2.421343 -0.074395 -6.963000
vn -1.000000 0.000000 0.000000
vn 0.000000 0.000000 -1.000000
vn 1.000000 -0.000000 0.000000
vn 0.000000 -0.000000 1.000000
vn 0.000000 -1.000000 -0.000000
vn 0.000000 0.586958 -0.809617
vn 0.998231 -0.052754 0.027433
vn 0.000000 0.993320 0.115391
vn -0.994922 -0.039698 -0.092494
vn 0.000000 0.996922 0.078402
vn 0.000000 0.943983 0.329993
vn 0.000000 0.968595 0.248645
vn -0.987448 0.135508 -0.081143
vn 0.993572 -0.044646 -0.104023
vn -0.998604 -0.046862 0.024369
vn 0.981272 0.178358 0.072753
vn 0.984160 0.152097 -0.091076
vn -0.985146 0.159001 0.064857
vn 0.000000 0.999815 0.019257
vn 0.000000 0.948347 -0.317235
vn 0.000000 0.992936 -0.118650
vn 0.000000 -0.021410 -0.999771
vn 0.000000 0.958819 0.284018
usemtl None
s off
f 1//1 2//1 3//1 4//1
f 2//2 5//2 6//2 3//2
f 7//3 8//3 9//3 10//3
f 8//4 11//4 12//4 9//4
f 4//5 3//5 6//5 13//5
f 14//6 15//6 16//6 17//6
f 18//1 19//1 20//1 21//1
f 22//7 23//7 24//7 25//7
f 21//5 20//5 24//5 10//5
f 26//8 27//8 28//8 29//8
f 30//9 31//9 32//9 33//9
f 33//5 32//5 34//5 25//5
f 35//10 36//10 37//10 38//10
f 39//3 40//3 34//3 41//3
f 23//3 7//3 10//3 24//3
f 11//1 18//1 21//1 12//1
f 12//5 21//5 10//5 9//5
f 42//11 26//11 29//11 43//11
f 16//2 15//2 5//2 2//2
f 29//1 28//1 19//1 18//1
f 27//12 35//12 38//12 28//12
f 38//13 37//13 31//13 30//13
f 44//3 36//3 40//3 39//3
f 40//14 22//14 25//14 34//14
f 20//5 33//5 25//5 24//5
f 19//15 30//15 33//15 20//15
f 26//3 42//3 8//3 7//3
f 2//1 1//1 17//1 16//1
f 42//4 43//4 11//4 8//4
f 35//16 27//16 23//16 22//16
f 27//3 26//3 7//3 23//3
f 43//1 29//1 18//1 11//1
f 36//17 35//17 22//17 40//17
f 28//18 38//18 30//18 19//18
f 45//3 46//3 47//3 48//3
f 31//1 49//1 50//1 32//1
f 51//1 52//1 53//1 54//1
f 48//3 47//3 55//3 56//3
f 49//1 51//1 54//1 50//1
f 54//5 53//5 55//5 57//5
f 58//19 46//19 59//19 60//19
f 44//20 58//20 60//20 61//20
f 46//3 58//3 62//3 47//3
f 47//3 62//3 57//3 55//3
f 60//1 59//1 52//1 51//1
f 62//3 39//3 41//3 57//3
f 61//1 60//1 51//1 49//1
f 1//1 64//1 63//1 17//1
f 36//21 44//21 61//21 37//21
f 32//5 50//5 41//5 34//5
f 14//3 45//3 48//3 65//3
f 59//1 63//1 64//1 52//1
f 58//3 44//3 39//3 62//3
f 37//1 61//1 49//1 31//1
f 50//5 54//5 57//5 41//5
f 66//5 4//5 13//5 56//5
f 45//22 14//22 17//22 63//22
f 65//3 48//3 56//3 13//3
f 15//3 14//3 65//3 5//3
f 64//1 1//1 4//1 66//1
f 5//3 65//3 13//3 6//3
f 53//5 66//5 56//5 55//5
f 46//23 45//23 63//23 59//23
f 52//1 64//1 66//1 53//1
