# Blender v2.67 (sub 0) OBJ File: ''
# www.blender.org
mtllib SL500_hull.mtl
o Cube_Cube.001
v -3.283200 1.494820 -7.686206
v -3.283200 1.046655 -8.191829
v -3.283200 0.024392 -7.096328
v -3.283200 0.024392 -7.051873
v 3.283200 1.046655 -8.191829
v 3.283200 0.024392 -7.096328
v 3.283200 1.185730 7.078901
v 1.482656 0.745668 8.220995
v 1.482656 0.024390 8.220995
v 3.283200 0.024390 7.078901
v -1.255027 0.745668 8.220995
v -1.255027 0.024390 8.220995
v 3.283200 0.024392 -7.051873
v 3.283200 3.476566 -7.798106
v 3.283200 2.424392 -8.220995
v -3.283200 2.424392 -8.220995
v -3.283200 3.476566 -7.798106
v -3.283200 1.185730 7.078901
v -3.283200 0.024390 7.078901
v 3.283200 1.355083 4.235456
v 3.283200 0.024391 4.235456
v 1.482656 1.717760 8.220996
v 3.283200 2.750906 7.078902
v -3.283200 2.750906 7.078902
v -1.255027 1.717760 8.220996
v 3.283200 4.159029 0.820568
v 3.283200 4.437616 0.233498
v -3.283200 4.437616 0.233498
v -3.283200 4.159029 0.820568
v -3.283200 0.024391 4.235456
v 3.283200 3.148503 4.235456
v -3.283200 3.148503 4.235456
v 3.283200 2.001245 -2.135311
v 3.283200 1.904171 0.233498
v 3.283200 0.024391 0.233497
v 3.283200 0.024392 -2.135311
v 3.283200 1.390845 2.773143
v 3.283200 0.024391 2.773142
v 3.283200 1.655868 1.461963
v 3.283200 0.024391 1.461962
v -3.283200 1.355083 4.235456
v -3.283200 0.024391 2.773142
v 3.283200 4.608517 -3.026823
v 3.283200 4.084171 -4.575897
v -3.283200 4.084171 -4.575897
v -3.283200 4.608517 -3.026823
v -3.283200 0.024391 0.233497
v -3.283200 0.024392 -2.135311
v -3.283200 1.390845 2.773143
v 3.283200 3.232461 2.773143
v -3.283200 3.232461 2.773143
v -3.283200 0.024391 0.820567
v 3.283200 0.024391 0.820567
v -3.283200 1.785510 0.820568
v -3.283200 1.904171 0.233498
v -3.283200 2.001245 -2.135311
v 3.283200 1.526772 -5.702980
v 3.283200 1.753624 -4.575897
v 3.283200 0.024392 -4.575898
v 3.283200 0.024392 -5.702980
v 3.283200 4.665518 -2.135310
v -3.283200 4.665518 -2.135310
v 3.283200 1.976966 -3.026823
v 3.283200 0.024392 -3.026824
v -3.283200 0.024392 -3.026824
v -3.283200 1.976966 -3.026823
v 3.283200 1.494820 -7.686206
v 3.283200 1.492489 -6.818582
v 3.283200 0.024392 -6.818583
v -3.283200 1.753624 -4.575897
v -3.283200 0.024392 -4.575898
v 3.283200 3.551580 -5.702979
v -3.283200 3.551580 -5.702979
v -3.283200 1.526772 -5.702980
v -3.283200 1.492489 -6.818582
v -3.283200 0.024392 -6.818583
v -3.283200 0.024392 -5.702980
v 3.283200 3.471094 -6.818582
v -3.283200 3.471094 -6.818582
v -3.283200 2.560048 -7.746355
v -3.283200 1.787217 -8.207506
v 3.283200 1.787217 -8.207506
v 3.283200 2.027043 7.078901
v 1.482656 1.268188 8.220996
v -1.255027 1.268188 8.220996
v -3.283200 2.027043 7.078901
v 3.283200 2.319082 4.235456
v 3.283200 3.433346 -2.135311
v 3.325667 3.265949 0.233498
v 3.283200 2.380750 2.773143
v 3.622097 2.837765 1.461963
v -3.283200 2.319082 4.235456
v -3.283200 2.380750 2.773143
v -3.709073 3.061325 0.820568
v -3.283200 3.265949 0.233498
v -3.283200 3.433346 -2.135311
v 3.283200 2.615147 -5.702979
v 3.283200 3.006341 -4.575897
v 3.283200 3.391478 -3.026823
v -3.283200 3.391478 -3.026823
v 3.283200 2.560048 -7.746355
v 3.283200 2.556029 -6.818582
v -3.283200 3.006341 -4.575897
v -3.283200 2.615147 -5.702979
v -3.283200 2.556029 -6.818582
v -3.283200 2.081975 -8.213747
v -3.283200 2.984030 -7.770295
v 3.283200 2.081975 -8.213747
v 1.482656 1.476160 8.220996
v 3.283200 2.361902 7.078902
v -1.255027 1.476160 8.220996
v -3.283200 2.361902 7.078902
v 3.283200 2.702773 4.235456
v 3.325667 3.807962 0.233498
v 3.283200 4.003349 -2.135311
v 3.283200 2.774752 2.773143
v 3.283200 3.854664 1.461963
v 3.622097 3.308184 1.461963
v -3.283200 2.702773 4.235456
v -3.283200 2.774752 2.773143
v -3.283200 3.807962 0.233498
v -3.709073 3.569124 0.820568
v -3.283200 4.003349 -2.135311
v 3.283200 3.504946 -4.575897
v 3.283200 3.048342 -5.702979
v 3.283200 3.954482 -3.026823
v -3.283200 3.954482 -3.026823
v 3.283200 2.979338 -6.818582
v 3.283200 2.984030 -7.770295
v -3.283200 3.504946 -4.575897
v -3.283200 2.979338 -6.818582
v -3.283200 3.048342 -5.702979
v 3.622097 3.061325 0.820568
v 3.283200 1.785510 0.820568
v -3.283200 1.655868 1.461963
v -3.283200 0.024391 1.461962
v 3.622097 3.569124 0.820568
v -3.709073 3.308184 1.461963
v -3.709073 2.837765 1.461963
v -3.283200 3.854664 1.461963
vn -1.000000 0.000000 0.000000
vn 0.000000 -0.731124 -0.682245
vn 0.535637 0.000000 0.844448
vn 0.000000 -0.000000 1.000000
vn 0.000000 -1.000000 -0.000000
vn 0.000000 0.372925 -0.927861
vn -0.490668 0.000000 0.871347
vn 1.000000 -0.000000 0.000000
vn 0.000000 0.741593 0.670850
vn 0.000000 0.903440 0.428715
vn 0.000000 0.990365 0.138482
vn 0.000000 0.947208 -0.320620
vn 0.000000 0.998356 0.057320
vn 0.000000 0.997962 -0.063807
vn 0.000000 0.995404 0.095767
vn 0.000000 0.904138 -0.427241
vn 0.000000 0.999984 0.005586
vn 0.000000 0.997408 -0.071959
vn 0.000000 -0.021165 -0.999776
vn 0.535638 -0.000001 0.844448
vn 0.000000 -0.000002 1.000000
vn -0.490668 -0.000001 0.871346
vn 0.999836 -0.015197 -0.009811
vn 0.984473 -0.153621 0.084929
vn -0.915985 -0.147897 -0.372959
vn 0.000000 -0.021162 -0.999776
vn 0.535638 0.000000 0.844448
vn 0.999442 0.032855 -0.006023
vn 0.916254 0.309220 0.254679
vn -0.926264 0.323453 -0.193425
vn 0.961440 -0.265148 -0.073006
vn 0.837756 0.499677 0.220200
vn 0.968183 -0.000000 0.250243
vn -0.951090 -0.000000 0.308915
vn -0.809449 0.000000 -0.587191
vn -0.941050 -0.326131 -0.089796
vn 0.999839 0.000000 -0.017925
vn 0.000000 -0.021168 -0.999776
vn 0.950731 -0.137464 -0.277876
vn -0.975805 -0.191347 0.105786
vn -0.876430 0.371691 0.306131
vn -0.773619 0.579844 0.255528
vn 0.948760 0.296683 -0.108786
vn 0.892659 0.000000 -0.450732
usemtl None
s off
f 1//1 2//1 3//1 4//1
f 2//2 5//2 6//2 3//2
f 7//3 8//3 9//3 10//3
f 8//4 11//4 12//4 9//4
f 4//5 3//5 6//5 13//5
f 14//6 15//6 16//6 17//6
f 11//7 18//7 19//7 12//7
f 20//8 7//8 10//8 21//8
f 12//5 19//5 10//5 9//5
f 22//9 23//9 24//9 25//9
f 26//10 27//10 28//10 29//10
f 19//5 30//5 21//5 10//5
f 23//11 31//11 32//11 24//11
f 33//8 34//8 35//8 36//8
f 37//8 20//8 21//8 38//8
f 39//8 37//8 38//8 40//8
f 18//1 41//1 30//1 19//1
f 30//5 42//5 38//5 21//5
f 43//12 44//12 45//12 46//12
f 47//5 48//5 36//5 35//5
f 41//1 49//1 42//1 30//1
f 31//13 50//13 51//13 32//13
f 52//5 47//5 35//5 53//5
f 54//1 55//1 47//1 52//1
f 55//1 56//1 48//1 47//1
f 57//8 58//8 59//8 60//8
f 61//14 43//14 46//14 62//14
f 58//8 63//8 64//8 59//8
f 63//8 33//8 36//8 64//8
f 27//15 61//15 62//15 28//15
f 48//5 65//5 64//5 36//5
f 56//1 66//1 65//1 48//1
f 67//8 68//8 69//8 13//8
f 66//1 70//1 71//1 65//1
f 65//5 71//5 59//5 64//5
f 44//16 72//16 73//16 45//16
f 74//1 75//1 76//1 77//1
f 70//1 74//1 77//1 71//1
f 71//5 77//5 60//5 59//5
f 68//8 57//8 60//8 69//8
f 78//17 14//17 17//17 79//17
f 77//5 76//5 69//5 60//5
f 76//5 4//5 13//5 69//5
f 72//18 78//18 79//18 73//18
f 75//1 1//1 4//1 76//1
f 5//8 67//8 13//8 6//8
f 2//1 1//1 80//1 81//1
f 81//19 82//19 5//19 2//19
f 83//20 84//20 8//20 7//20
f 84//21 85//21 11//21 8//21
f 85//22 86//22 18//22 11//22
f 87//8 83//8 7//8 20//8
f 88//23 89//23 34//23 33//23
f 90//8 87//8 20//8 37//8
f 91//24 90//24 37//24 39//24
f 86//1 92//1 41//1 18//1
f 92//1 93//1 49//1 41//1
f 94//25 95//25 55//25 54//25
f 95//1 96//1 56//1 55//1
f 97//8 98//8 58//8 57//8
f 98//8 99//8 63//8 58//8
f 99//8 88//8 33//8 63//8
f 96//1 100//1 66//1 56//1
f 101//8 102//8 68//8 67//8
f 100//1 103//1 70//1 66//1
f 104//1 105//1 75//1 74//1
f 103//1 104//1 74//1 70//1
f 102//8 97//8 57//8 68//8
f 1//1 75//1 105//1 80//1
f 82//8 101//8 67//8 5//8
f 17//1 16//1 106//1 107//1
f 16//26 15//26 108//26 106//26
f 23//27 22//27 109//27 110//27
f 22//4 25//4 111//4 109//4
f 25//7 24//7 112//7 111//7
f 31//8 23//8 110//8 113//8
f 61//28 27//28 114//28 115//28
f 50//8 31//8 113//8 116//8
f 117//29 50//29 116//29 118//29
f 24//1 32//1 119//1 112//1
f 32//1 51//1 120//1 119//1
f 29//30 28//30 121//30 122//30
f 28//1 62//1 123//1 121//1
f 72//8 44//8 124//8 125//8
f 44//8 43//8 126//8 124//8
f 43//8 61//8 115//8 126//8
f 62//1 46//1 127//1 123//1
f 14//8 78//8 128//8 129//8
f 46//1 45//1 130//1 127//1
f 73//1 79//1 131//1 132//1
f 45//1 73//1 132//1 130//1
f 78//8 72//8 125//8 128//8
f 79//1 17//1 107//1 131//1
f 15//8 14//8 129//8 108//8
f 133//31 91//31 39//31 134//31
f 49//1 135//1 136//1 42//1
f 34//8 134//8 53//8 35//8
f 111//22 112//22 86//22 85//22
f 116//8 113//8 87//8 90//8
f 130//1 132//1 104//1 103//1
f 126//8 115//8 88//8 99//8
f 121//1 123//1 96//1 95//1
f 26//32 117//32 118//32 137//32
f 118//33 116//33 90//33 91//33
f 120//34 138//34 139//34 93//34
f 122//35 121//35 95//35 94//35
f 113//8 110//8 83//8 87//8
f 132//1 131//1 105//1 104//1
f 42//5 136//5 40//5 38//5
f 109//4 111//4 85//4 84//4
f 108//8 129//8 101//8 82//8
f 119//1 120//1 93//1 92//1
f 107//1 106//1 81//1 80//1
f 123//1 127//1 100//1 96//1
f 110//20 109//20 84//20 83//20
f 134//8 39//8 40//8 53//8
f 139//36 94//36 54//36 135//36
f 127//1 130//1 103//1 100//1
f 128//8 125//8 97//8 102//8
f 115//37 114//37 89//37 88//37
f 117//10 26//10 29//10 140//10
f 106//38 108//38 82//38 81//38
f 124//8 126//8 99//8 98//8
f 129//8 128//8 102//8 101//8
f 125//8 124//8 98//8 97//8
f 136//5 52//5 53//5 40//5
f 112//1 119//1 92//1 86//1
f 131//1 107//1 80//1 105//1
f 89//39 133//39 134//39 34//39
f 93//40 139//40 135//40 49//40
f 137//8 118//8 91//8 133//8
f 138//1 122//1 94//1 139//1
f 51//41 140//41 138//41 120//41
f 135//1 54//1 52//1 136//1
f 140//42 29//42 122//42 138//42
f 27//43 26//43 137//43 114//43
f 50//10 117//10 140//10 51//10
f 114//44 137//44 133//44 89//44
