# Blender v2.67 (sub 0) OBJ File: ''
# www.blender.org
mtllib sls_amg_hull.mtl
o Cube_Cube.006
v -3.168000 2.388615 -7.544929
v -3.168000 2.388615 -8.003778
v -3.168000 1.448789 -5.412592
v -3.168000 1.448789 -5.032195
v 3.168000 2.388615 -8.003778
v 3.168000 1.448789 -5.412592
v 3.168000 2.388613 6.137842
v 0.680794 2.388613 7.144998
v 0.680794 1.448787 7.144998
v 3.168000 1.448787 6.310115
v -0.793734 2.388613 7.144998
v -0.793734 1.448787 7.144998
v 3.168000 1.448789 -5.032393
v 3.168000 4.246359 -7.831414
v 3.168000 3.448790 -8.299004
v -3.168000 3.448790 -8.299004
v -3.168000 4.246359 -7.831215
v -3.168000 3.537225 -7.721934
v -3.168000 3.044101 -8.186311
v 3.168000 3.044101 -8.186311
v 3.168000 3.324304 6.125707
v 0.680794 3.044099 7.144999
v -0.793734 3.044099 7.144999
v -3.168000 2.388613 6.143933
v -3.168000 1.448787 6.316206
v 3.168000 2.388613 5.344900
v 3.168000 1.448787 5.652805
v 0.680794 3.448787 7.144999
v 3.168000 3.901987 6.118215
v -3.168000 3.901987 6.124307
v -0.793734 3.448787 7.144999
v -3.168000 3.324304 6.131798
v 3.168000 3.470827 5.323210
v -3.168000 2.388613 5.350650
v -3.168000 1.448787 5.658556
v 3.168000 4.138971 5.309820
v -3.168000 4.138971 5.315569
v -3.168000 3.470827 5.328960
v 3.168000 2.388614 2.236295
v 3.168000 1.448788 3.075925
v 3.168000 3.648535 2.177149
v -3.168000 2.388614 2.240706
v -3.168000 1.448788 3.080336
v 3.168000 4.426393 2.140634
v -3.168000 4.426393 2.145043
v -3.168000 3.648535 2.181559
v 3.168000 2.388614 0.913671
v 3.168000 1.448788 1.979535
v 3.168000 3.730307 0.838588
v 3.168000 4.558649 0.792233
v 3.168000 5.366548 -0.556166
v -3.168000 5.366548 -0.552894
v -3.168000 4.558649 0.796074
v 3.168000 2.388615 -3.345776
v 3.168000 2.388614 -1.012999
v 3.168000 1.448788 0.382420
v 3.168000 1.448788 -1.551338
v 3.168000 2.388614 -0.408953
v 3.168000 1.448788 0.883144
v -3.168000 4.403305 -3.470176
v -3.168000 3.882538 -5.696438
v -3.168000 2.388615 -5.543538
v -3.168000 2.388615 -3.343770
v 3.168000 5.532165 -1.171984
v -3.168000 5.532165 -1.168973
v -3.168000 1.448788 1.983376
v -3.168000 1.448788 0.886416
v 3.431896 4.332213 -1.111297
v 3.431896 4.229816 -0.499972
v -3.168000 2.388614 -1.009988
v -3.168000 1.448788 -1.549332
v -3.168000 1.448788 0.385431
v 3.168000 4.403305 -3.472183
v -3.168000 2.388614 0.917512
v -3.168000 2.388614 -0.405681
v -3.168000 3.730307 0.842429
v -3.451968 4.229816 -0.496701
v 3.168000 5.647146 -3.550223
v -3.168000 5.647146 -3.548217
v -3.451968 4.332213 -1.108286
v 3.168000 3.882538 -5.697496
v 3.168000 2.388615 -5.544597
v -3.168000 3.881775 2.170610
v -3.168000 3.671170 5.324945
v 3.168000 2.388615 -7.545126
v 3.168000 2.388615 -6.956384
v 3.168000 1.448789 -4.544354
v -3.168000 1.448789 -3.372993
v 3.168000 1.448789 -3.374052
v 3.168000 3.537225 -7.722132
v 3.168000 4.804865 -5.791895
v -3.168000 4.804865 -5.790837
v 3.168000 4.363961 -7.231197
v -3.168000 4.363961 -7.230747
v 3.168000 3.609935 -7.126297
v -3.168000 3.609935 -7.125844
v -3.168000 2.388615 -6.955934
v -3.168000 1.448789 -4.543903
v -3.168000 3.497522 6.129551
v -0.793734 3.165444 7.144999
v 3.411469 4.570664 -0.516822
v 3.411469 4.692018 -1.129493
v 3.168000 3.497522 6.123460
v 3.168000 3.671170 5.319195
v 0.680794 3.165444 7.144999
v 3.168000 3.165447 -8.220101
v -3.168000 3.165447 -8.220101
v -3.168000 3.749857 -7.754703
v 3.168000 3.881775 2.166199
v 3.168000 3.978684 0.824689
v -3.168000 4.159097 -5.724743
v -3.168000 4.776268 -3.493577
v 3.168000 4.776268 -3.495583
v -3.168000 3.978684 0.828530
v -3.481682 4.570664 -0.513551
v -3.481682 4.692018 -1.126482
v 3.168000 4.159097 -5.725802
v 3.168000 3.749857 -7.754900
v 3.168000 3.836029 -7.157751
v -3.168000 3.836029 -7.157300
vn -1.000000 0.000000 0.000000
vn 0.000000 -0.940076 -0.340966
vn 0.345983 0.085632 0.934325
vn 0.000000 -0.000000 1.000000
vn -0.000000 -1.000000 -0.000000
vn -0.000014 0.505839 -0.862628
vn 0.000000 -0.268262 -0.963346
vn 0.376920 0.007064 0.926219
vn 0.000000 -0.000001 1.000000
vn -0.358270 0.085210 0.929721
vn 1.000000 -0.000000 0.000000
vn 0.000316 0.914399 0.404814
vn -0.390146 0.007021 0.920726
vn 0.000263 0.959631 0.281260
vn 0.000072 0.995914 0.090303
vn 0.000288 0.857861 0.513882
vn 0.000129 0.965701 0.259658
vn 0.990269 -0.138678 -0.011684
vn 0.995940 -0.069637 -0.057050
vn -0.992396 -0.083835 0.090121
vn 0.000019 0.998834 0.048281
vn -0.988758 -0.148998 -0.012548
vn -0.995305 -0.074885 -0.061324
vn 0.000064 0.995226 0.097595
vn 0.993420 -0.077988 0.083874
vn -0.000085 0.936126 -0.351664
vn -0.000010 0.981348 -0.192238
vn -0.393102 0.007011 0.919468
vn -0.000035 0.956161 -0.292841
vn 0.955357 0.287708 0.067207
vn 0.379793 0.007055 0.925044
vn 0.989379 0.138230 -0.044968
vn -0.946466 0.227726 0.228787
vn -0.928977 0.360442 0.084162
vn -0.982553 0.176867 -0.057512
vn 0.966687 0.180533 0.181450
vn 0.000000 -0.268260 -0.963346
vn 0.378811 0.007058 0.925447
vn -0.392091 0.007017 0.919900
vn 0.998216 0.058742 0.010738
vn 0.994130 0.021696 -0.105991
vn -0.978549 -0.038789 0.202331
vn -0.996235 -0.085279 -0.015583
vn -0.990800 -0.047374 -0.126774
vn 0.978105 0.044518 0.203296
usemtl None.010
s off
f 1//1 2//1 3//1 4//1
f 2//2 5//2 6//2 3//2
f 7//3 8//3 9//3 10//3
f 8//4 11//4 12//4 9//4
f 4//5 3//5 6//5 13//5
f 14//6 15//6 16//6 17//6
f 2//1 1//1 18//1 19//1
f 19//7 20//7 5//7 2//7
f 21//8 22//8 8//8 7//8
f 22//9 23//9 11//9 8//9
f 11//10 24//10 25//10 12//10
f 26//11 7//11 10//11 27//11
f 12//5 25//5 10//5 9//5
f 28//12 29//12 30//12 31//12
f 23//13 32//13 24//13 11//13
f 33//11 21//11 7//11 26//11
f 24//1 34//1 35//1 25//1
f 25//5 35//5 27//5 10//5
f 29//14 36//14 37//14 30//14
f 32//1 38//1 34//1 24//1
f 39//11 26//11 27//11 40//11
f 41//11 33//11 26//11 39//11
f 34//1 42//1 43//1 35//1
f 35//5 43//5 40//5 27//5
f 36//15 44//15 45//15 37//15
f 38//1 46//1 42//1 34//1
f 47//11 39//11 40//11 48//11
f 49//11 41//11 39//11 47//11
f 50//16 51//16 52//16 53//16
f 54//11 55//11 56//11 57//11
f 55//11 58//11 59//11 56//11
f 60//1 61//1 62//1 63//1
f 51//17 64//17 65//17 52//17
f 66//5 67//5 59//5 48//5
f 68//18 69//18 58//18 55//18
f 70//1 63//1 71//1 72//1
f 73//19 68//19 55//19 54//19
f 74//1 75//1 67//1 66//1
f 46//1 76//1 74//1 42//1
f 76//20 77//20 75//20 74//20
f 67//5 72//5 56//5 59//5
f 75//1 70//1 72//1 67//1
f 72//5 71//5 57//5 56//5
f 64//21 78//21 79//21 65//21
f 77//22 80//22 70//22 75//22
f 80//23 60//23 63//23 70//23
f 58//11 47//11 48//11 59//11
f 81//11 73//11 54//11 82//11
f 42//1 74//1 66//1 43//1
f 43//5 66//5 48//5 40//5
f 44//24 50//24 53//24 45//24
f 69//25 49//25 47//25 58//25
f 37//1 45//1 83//1 84//1
f 85//11 86//11 87//11 13//11
f 63//1 62//1 88//1 71//1
f 71//5 88//5 89//5 57//5
f 20//11 90//11 85//11 5//11
f 82//11 54//11 57//11 89//11
f 86//11 82//11 89//11 87//11
f 78//26 91//26 92//26 79//26
f 93//27 14//27 17//27 94//27
f 90//11 95//11 86//11 85//11
f 95//11 81//11 82//11 86//11
f 5//11 85//11 13//11 6//11
f 61//1 96//1 97//1 62//1
f 97//1 1//1 4//1 98//1
f 31//28 30//28 99//28 100//28
f 88//5 98//5 87//5 89//5
f 62//1 97//1 98//1 88//1
f 91//29 93//29 94//29 92//29
f 64//30 51//30 101//30 102//30
f 1//1 97//1 96//1 18//1
f 36//11 29//11 103//11 104//11
f 28//4 31//4 100//4 105//4
f 16//7 15//7 106//7 107//7
f 98//5 4//5 13//5 87//5
f 17//1 16//1 107//1 108//1
f 29//31 28//31 105//31 103//31
f 44//11 36//11 104//11 109//11
f 50//11 44//11 109//11 110//11
f 30//1 37//1 84//1 99//1
f 79//1 92//1 111//1 112//1
f 78//32 64//32 102//32 113//32
f 45//1 53//1 114//1 83//1
f 53//33 52//33 115//33 114//33
f 52//34 65//34 116//34 115//34
f 65//35 79//35 112//35 116//35
f 91//11 78//11 113//11 117//11
f 51//36 50//36 110//36 101//36
f 15//11 14//11 118//11 106//11
f 14//11 93//11 119//11 118//11
f 93//11 91//11 117//11 119//11
f 92//1 94//1 120//1 111//1
f 94//1 17//1 108//1 120//1
f 108//1 107//1 19//1 18//1
f 107//37 106//37 20//37 19//37
f 103//38 105//38 22//38 21//38
f 105//4 100//4 23//4 22//4
f 100//39 99//39 32//39 23//39
f 104//11 103//11 21//11 33//11
f 99//1 84//1 38//1 32//1
f 109//11 104//11 33//11 41//11
f 84//1 83//1 46//1 38//1
f 110//11 109//11 41//11 49//11
f 112//1 111//1 61//1 60//1
f 102//40 101//40 69//40 68//40
f 113//41 102//41 68//41 73//41
f 83//1 114//1 76//1 46//1
f 114//42 115//42 77//42 76//42
f 115//43 116//43 80//43 77//43
f 116//44 112//44 60//44 80//44
f 117//11 113//11 73//11 81//11
f 101//45 110//45 49//45 69//45
f 106//11 118//11 90//11 20//11
f 118//11 119//11 95//11 90//11
f 119//11 117//11 81//11 95//11
f 111//1 120//1 96//1 61//1
f 120//1 108//1 18//1 96//1
