# Blender v2.63 (sub 0) OBJ File: ''
# www.blender.org
mtllib blender.mtl
o Cube
v 0.342978 -1.053897 -1.768004
v 1.185324 -1.547826 0.810193
v -0.933388 -1.071647 0.827351
v -0.875457 -1.117040 -1.039384
v 0.934385 0.790426 -1.026267
v 0.451582 1.131025 0.619738
v -1.307767 0.874031 0.452960
v -1.516530 1.480842 -1.251714
v 0.721468 -1.796398 -0.989061
v -0.702346 -1.064169 -1.847936
v 0.666509 -0.014898 -1.860501
v -0.194725 -0.895334 0.999039
v 0.884623 -0.358118 0.622280
v -1.199092 -1.250279 0.045428
v -1.599701 -0.057740 0.882053
v -1.123067 -0.107905 -1.198750
v 1.128194 0.954923 -0.095141
v -0.701681 1.343673 -1.811119
v -0.191606 1.029159 0.908605
v -1.194667 1.194667 -0.000000
v -0.034000 -1.344220 -0.004760
v -0.000000 1.543509 0.000000
v 1.145849 0.205329 -0.081112
v -0.725510 0.210129 0.986157
v -2.071469 0.157726 -0.321410
v 0.058301 0.054129 -1.505551
vt 0.245619 0.130248
vt 0.360505 0.189684
vt 0.323495 0.267366
vt 0.222829 0.272970
vt 0.280656 0.520725
vt 0.166386 0.561435
vt 0.121852 0.506873
vt 0.207496 0.412055
vt 0.508913 0.341017
vt 0.417517 0.317886
vt 0.420070 0.219704
vt 0.590490 0.314412
vt 0.568028 0.097071
vt 0.452463 0.139983
vt 0.498674 0.015711
vt 0.624083 0.000000
vt 0.000081 0.616319
vt 0.183997 0.726907
vt 0.037358 0.678787
vt 0.914146 0.546856
vt 0.840323 0.698373
vt 0.793369 0.696311
vt 0.761961 0.575086
vt 0.000000 0.170830
vt 0.095818 0.210661
vt 0.034826 0.049036
vt 0.147447 0.000551
vt 0.377236 0.000000
vt 0.377236 0.162665
vt 0.567591 0.704959
vt 0.700366 0.781609
vt 0.457286 0.776168
vt 0.446369 0.709181
vt 0.224717 0.759091
vt 0.612873 0.381827
vt 0.456819 0.615799
vt 0.388561 0.531878
vt 0.377236 0.381723
vt 0.705633 0.486863
vt 0.690014 0.619004
vt 0.688862 0.192647
vt 0.729459 0.110496
vt 0.729315 0.381723
vt 0.142076 0.412055
vt 0.059743 0.268163
vt 0.303638 0.380312
vt 0.000000 0.451899
vt 0.823537 0.397757
vt 0.705633 0.381723
vt 1.000000 0.440023
vt 0.999897 0.553861
vt 0.964416 0.685462
vn -0.220496 -0.967864 0.120731
vn 0.013489 -0.425581 0.904782
vn -0.340983 -0.658406 0.670949
vn -0.553514 -0.832270 0.029969
vn 0.151250 0.978271 0.141667
vn -0.557878 0.807245 0.192541
vn -0.561602 0.606098 0.563219
vn 0.047731 0.531632 0.845607
vn 0.996551 0.027284 0.078158
vn 0.846461 0.517502 0.125004
vn 0.483688 0.541704 0.687399
vn 0.752403 0.099704 0.651051
vn -0.077822 0.164037 0.983367
vn -0.689932 -0.007721 0.723808
vn -0.998230 -0.029725 -0.051454
vn -0.633259 0.617878 -0.465987
vn -0.733879 -0.123539 -0.667898
vn -0.155736 0.146458 -0.976867
vn -0.513016 -0.361827 -0.778375
vn -0.528459 -0.714927 -0.457747
vn 0.299722 -0.478225 -0.825465
vn 0.458083 -0.859859 -0.225349
vn 0.581622 -0.599078 0.550249
vn 0.761803 0.438826 -0.476455
vn -0.108463 0.558763 -0.822169
vn 0.572039 0.099826 -0.814112
usemtl Material
s 1
f 21/1/1 12/2/2 3/3/3 14/4/4
f 22/5/5 20/6/6 7/7/7 19/8/8
f 23/9/9 17/10/10 6/11/11 13/12/12
f 24/13/13 19/14/8 7/15/7 15/16/14
f 25/17/15 20/6/6 8/18/16 16/19/17
f 26/20/18 10/21/19 4/22/20 16/23/17
f 10/24/19 21/1/1 14/4/4 4/25/20
f 1/26/21 9/27/22 21/1/1 10/24/19
f 9/27/22 2/28/23 12/2/2 21/1/1
f 17/10/10 22/29/5 19/14/8 6/11/11
f 5/30/24 18/31/25 22/32/5 17/33/10
f 18/34/25 8/18/16 20/6/6 22/5/5
f 9/35/22 23/36/9 13/37/12 2/38/23
f 1/39/21 11/40/26 23/36/9 9/35/22
f 11/40/26 5/30/24 17/33/10 23/36/9
f 12/41/2 24/13/13 15/16/14 3/42/3
f 2/43/23 13/12/12 24/13/13 12/41/2
f 13/12/12 6/11/11 19/14/8 24/13/13
f 14/4/4 25/44/15 16/45/17 4/25/20
f 3/3/3 15/46/14 25/44/15 14/4/4
f 15/47/14 7/7/7 20/6/6 25/17/15
f 18/48/25 26/20/18 16/23/17 8/49/16
f 5/50/24 11/51/26 26/20/18 18/48/25
f 11/51/26 1/52/21 10/21/19 26/20/18
