# Blender v2.63 (sub 0) OBJ File: ''
# www.blender.org
mtllib corvette_hull.mtl
o Cube_Cube.001
v -1.386472 -0.676461 -1.333891
v -0.267929 -0.676461 3.106270
v 0.267929 -0.676461 3.106270
v 1.386472 -0.676461 -1.333891
v -1.386472 0.912789 -1.333891
v -0.267929 -0.246603 3.017195
v 0.267929 -0.246603 3.017195
v 1.386472 0.912789 -1.333891
v -1.386472 0.945720 -0.330740
v -1.386472 0.397069 0.906398
v -1.386472 0.246851 2.039106
v -1.049768 0.053367 2.652179
v -1.049768 -0.676461 2.813885
v -1.386472 -0.676461 1.980068
v -1.386472 -0.676461 0.957652
v -1.386472 -0.676461 -0.330740
v 1.049768 0.053367 2.652179
v 1.386472 0.246851 2.039106
v 1.386472 0.397069 0.906398
v 1.386472 0.945720 -0.330740
v 1.386472 -0.676461 -0.330740
v 1.386472 -0.676461 0.957652
v 1.386472 -0.676461 1.980068
v 1.049768 -0.676461 2.813885
v -1.369957 -0.676461 -2.134747
v 1.369957 -0.676461 -2.134747
v -1.369957 0.912789 -2.134747
v 1.369957 0.912789 -2.134747
v -1.307632 -0.410163 -2.926740
v 1.307632 -0.410163 -2.926740
v -1.307632 0.912789 -2.926740
v 1.307632 0.912789 -2.926740
vn 0.347317 -0.198206 -0.916562
vn 0.000000 -0.202909 -0.979198
vn -1.000000 0.000000 0.000000
vn 0.000000 -1.000000 0.000000
vn 0.000000 1.000000 0.000000
vn 0.000000 -0.772585 -0.634911
vn 1.000000 0.000000 0.000000
vn 0.904948 -0.026376 -0.424705
vn -0.347317 -0.198206 -0.916562
vn -0.904948 -0.026376 -0.424705
vn 0.000000 -0.999462 0.032810
vn 0.000000 -0.914137 -0.405405
vn 0.000000 -0.991320 -0.131467
vn 0.000000 -0.953635 -0.300965
vn 0.000000 0.947854 0.318704
vn 0.999787 0.000000 0.020617
vn -0.999787 0.000000 0.020617
vn 0.000000 -0.000000 1.000000
vn 0.996918 0.000000 0.078451
vn -0.996918 0.000000 0.078451
usemtl 
s off
f 12//1 6//1 2//1 13//1
f 6//2 7//2 3//2 2//2
f 20//3 8//3 4//3 21//3
f 8//4 5//4 27//4 28//4
f 13//5 2//5 3//5 24//5
f 17//6 7//6 6//6 12//6
f 16//7 1//7 5//7 9//7
f 9//7 10//7 15//7 16//7
f 10//7 11//7 14//7 15//7
f 11//8 12//8 13//8 14//8
f 7//9 17//9 24//9 3//9
f 17//10 18//10 23//10 24//10
f 18//3 19//3 22//3 23//3
f 19//3 20//3 21//3 22//3
f 1//5 16//5 21//5 4//5
f 16//5 15//5 22//5 21//5
f 15//5 14//5 23//5 22//5
f 14//5 13//5 24//5 23//5
f 8//11 20//11 9//11 5//11
f 20//12 19//12 10//12 9//12
f 19//13 18//13 11//13 10//13
f 18//14 17//14 12//14 11//14
f 25//15 26//15 30//15 29//15
f 5//16 1//16 25//16 27//16
f 1//5 4//5 26//5 25//5
f 28//17 26//17 4//17 8//17
f 32//18 31//18 29//18 30//18
f 29//19 31//19 27//19 25//19
f 32//20 30//20 26//20 28//20
f 28//4 27//4 31//4 32//4
